<svg xmlns="http://www.w3.org/2000/svg" viewBox="0 0 512 512" width="512" height="512">
  <rect width="512" height="512" rx="112" fill="#0e7490"/>
  <g fill="#ffffff">
    <!-- top-left finder -->
    <rect x="96" y="96" width="120" height="120" rx="20" fill="none" stroke="#ffffff" stroke-width="28"/>
    <rect x="140" y="140" width="32" height="32" rx="6"/>
    <!-- top-right finder -->
    <rect x="296" y="96" width="120" height="120" rx="20" fill="none" stroke="#ffffff" stroke-width="28"/>
    <rect x="340" y="140" width="32" height="32" rx="6"/>
    <!-- bottom-left finder -->
    <rect x="96" y="296" width="120" height="120" rx="20" fill="none" stroke="#ffffff" stroke-width="28"/>
    <rect x="140" y="340" width="32" height="32" rx="6"/>
    <!-- data dots bottom-right -->
    <rect x="296" y="296" width="40" height="40" rx="8"/>
    <rect x="376" y="296" width="40" height="40" rx="8"/>
    <rect x="336" y="336" width="40" height="40" rx="8"/>
    <rect x="296" y="376" width="40" height="40" rx="8"/>
    <rect x="376" y="376" width="40" height="40" rx="8"/>
  </g>
</svg>
